<svg width="156" height="156" viewBox="0 0 156 156" fill="none" xmlns="http://www.w3.org/2000/svg">
<rect width="155.52" height="155.52" fill="#E5BCA9"/>
<rect x="42.5627" y="40.5626" width="76.5294" height="76.5294" fill="#284671"/>
<path d="M83.8672 118.208C104.49 118.208 121.209 101.49 121.209 80.8672C121.209 60.2441 104.49 43.5259 83.8672 43.5259C63.2442 43.5259 46.5259 60.2441 46.5259 80.8672C46.5259 101.49 63.2442 118.208 83.8672 118.208Z" stroke="#050505" stroke-miterlimit="10"/>
<path d="M77.2609 117.245C60.0753 117.245 44.4571 101.626 44.4571 84.4407C44.4571 67.2551 70.2471 41.4649 87.4327 41.4649C104.618 41.4649 120.237 57.0832 120.237 74.2688C120.237 91.4544 94.4465 117.245 77.2609 117.245Z" stroke="#050505" stroke-miterlimit="10"/>
<path d="M70.6549 116.265C56.9017 116.265 42.3804 101.744 42.3804 87.9907C42.3804 74.2375 77.2454 39.4039 90.9672 39.4039C104.689 39.4039 119.242 53.9251 119.242 67.6783C119.242 81.4315 84.4081 116.265 70.6549 116.265Z" stroke="#050505" stroke-miterlimit="10"/>
<path d="M64.0485 115.293C53.7355 115.293 40.3115 101.869 40.3115 91.5564C40.3115 81.2434 84.2435 37.3116 94.5564 37.3116C104.869 37.3116 118.332 50.7042 118.332 61.0485C118.332 71.3928 74.3614 115.293 64.0485 115.293Z" stroke="#050505" stroke-miterlimit="10"/>
<path d="M57.4422 114.322C50.5695 114.322 38.2426 101.995 38.2426 95.122C38.2426 88.2493 91.2493 35.2427 98.1219 35.2427C104.995 35.2427 117.322 47.5696 117.322 54.4423C117.322 61.315 64.3227 114.322 57.4422 114.322Z" stroke="#050505" stroke-miterlimit="10"/>
<path d="M50.8362 113.35C47.3959 113.35 36.174 102.128 36.174 98.6876C36.174 95.2473 98.2472 33.1738 101.687 33.1738C105.128 33.1738 116.35 44.3958 116.35 47.836C116.35 51.2763 54.2764 113.35 50.8362 113.35Z" stroke="#050505" stroke-miterlimit="10"/>
<path d="M115.379 41.2329L105.256 31.1092L34.1055 102.259L44.2292 112.383L115.379 41.2329Z" stroke="#050505" stroke-miterlimit="10"/>
</svg>
