<svg width="156" height="156" viewBox="0 0 156 156" fill="none" xmlns="http://www.w3.org/2000/svg">
<rect width="155.52" height="155.52" fill="#040404"/>
<path d="M49.351 119.558L51.0988 125.573H47.5648L49.351 119.558ZM47.7885 115.381L42.6011 130.002H46.1945L46.7538 128.226H51.9255L52.4866 130.002H56.1412L50.8873 115.381H47.7885Z" fill="#FFF5DD"/>
<path d="M60.2118 115.381V130.002H67.7098V127.079H63.5763V115.381H60.2118Z" fill="#FFF5DD"/>
<path d="M69.4751 115.381V118.306H72.7557V130.002H76.1202V118.306H79.4218V115.381H69.4751Z" fill="#FFF5DD"/>
<path d="M91.4044 128.08H80.1907V130.002H91.4044V128.08Z" fill="#FFF5DD"/>
<path d="M95.3301 115.381V130.002H98.6946V124.948H104.198V122.169H98.6946V118.221H104.198V115.381H95.3301Z" fill="#FFF5DD"/>
<path d="M112.755 115.381H109.349V130.002H112.755V115.381Z" fill="#FFF5DD"/>
<path d="M77.5008 79.3569C74.3647 79.3582 71.3252 78.2664 68.9003 76.2676C66.4753 74.2687 64.815 71.4865 64.2023 68.3951C63.5896 65.3036 64.0623 62.0943 65.54 59.314C67.0177 56.5336 69.4089 54.3544 72.3061 53.1476C75.2032 51.9408 78.4271 51.7811 81.4282 52.6958C84.4294 53.6105 87.0221 55.543 88.7646 58.1638C90.507 60.7847 91.2914 63.9318 90.984 67.0688C90.6765 70.2058 89.2964 73.1386 87.0787 75.3673C85.8239 76.6358 84.3313 77.6416 82.6873 78.3264C81.0432 79.0112 79.2804 79.3615 77.5008 79.3569ZM77.5008 54.2037C74.8481 54.2028 72.2771 55.1264 70.226 56.8173C68.1749 58.5081 66.7706 60.8615 66.2523 63.4765C65.7341 66.0914 66.1339 68.8061 67.3838 71.1579C68.6337 73.5097 70.6562 75.3531 73.1067 76.3741C75.5572 77.395 78.2842 77.5303 80.8228 76.7568C83.3614 75.9834 85.5547 74.3491 87.0289 72.1324C88.5031 69.9157 89.1669 67.2538 88.9073 64.6003C88.6477 61.9467 87.4808 59.4658 85.6053 57.5802C84.5438 56.5064 83.2809 55.6551 81.8897 55.0755C80.4985 54.4959 79.0067 54.1996 77.5008 54.2037Z" fill="#FFF5DD"/>
<path d="M77.5009 83.6467C73.3761 83.6463 69.3791 82.2082 66.191 79.5776C63.0029 76.947 60.821 73.2866 60.0171 69.2201C59.2132 65.1537 59.837 60.9329 61.7823 57.277C63.7276 53.6211 66.874 50.7563 70.6852 49.1708C74.4965 47.5854 78.7368 47.3774 82.6835 48.5822C86.6303 49.7871 90.0392 52.3303 92.3295 55.7784C94.6197 59.2265 95.6496 63.3662 95.2435 67.492C94.8374 71.6178 93.0205 75.4744 90.1024 78.4045C88.4491 80.0697 86.4847 81.3901 84.3221 82.2897C82.1595 83.1893 79.8413 83.6505 77.5009 83.6467ZM77.5009 49.917C73.8618 49.919 70.336 51.1892 67.5242 53.5112C64.7124 55.8332 62.7885 59.0632 62.0803 62.651C61.3722 66.2389 61.9236 69.9625 63.6405 73.1875C65.3575 76.4126 68.1338 78.9395 71.4965 80.3377C74.8592 81.736 78.6002 81.9191 82.0821 80.8559C85.5641 79.7927 88.5715 77.5489 90.5922 74.5068C92.6128 71.4647 93.5215 67.8125 93.1635 64.1725C92.8056 60.5325 91.2031 57.1299 88.629 54.5443C87.1693 53.0732 85.4347 51.9066 83.5249 51.1116C81.6152 50.3166 79.5679 49.9088 77.5009 49.9117" fill="#FFF5DD"/>
<path d="M77.5008 87.9415C74.599 87.9461 71.7249 87.3742 69.0436 86.2587C66.3624 85.1433 63.927 83.5061 61.8773 81.4415C53.2642 72.7789 53.2642 58.681 61.8773 50.0167C66.0221 45.8541 71.6416 43.5159 77.5008 43.5159C83.36 43.5159 88.9794 45.8541 93.1243 50.0167C101.737 58.681 101.737 72.7789 93.1243 81.4415C91.0746 83.5061 88.6391 85.1433 85.9579 86.2587C83.2767 87.3742 80.4026 87.9461 77.5008 87.9415ZM77.5008 45.6142C72.8706 45.617 68.3845 47.2334 64.807 50.1879C61.2295 53.1425 58.7819 57.2524 57.8812 61.8175C56.9804 66.3826 57.6823 71.1204 59.8673 75.2236C62.0522 79.3268 65.585 82.5416 69.8637 84.3203C74.1425 86.099 78.9024 86.3315 83.3326 84.9782C87.7627 83.6248 91.5889 80.7694 94.1594 76.8985C96.7298 73.0275 97.8854 68.3804 97.4293 63.7491C96.9732 59.1177 94.9335 54.7886 91.6579 51.4994C89.8005 49.629 87.5935 48.1461 85.1639 47.1361C82.7343 46.1261 80.13 45.6089 77.5008 45.6142Z" fill="#FFF5DD"/>
<path d="M77.5009 92.232C71.4038 92.2271 65.497 90.0975 60.7869 86.2059C56.0767 82.3144 52.8547 76.9018 51.6697 70.8902C50.4847 64.8787 51.4101 58.6401 54.2882 53.2374C57.1663 47.8348 61.819 43.6023 67.4537 41.261C73.0883 38.9198 79.3563 38.6147 85.1897 40.3976C91.0231 42.1806 96.061 45.9414 99.445 51.0393C102.829 56.1371 104.35 62.2566 103.748 68.3551C103.147 74.4537 100.46 80.1539 96.1463 84.4847C93.6999 86.9475 90.7931 88.8999 87.5932 90.2294C84.3933 91.559 80.9635 92.2396 77.5009 92.232ZM77.5009 41.3001C72.6962 41.3034 68.0002 42.7382 64.0065 45.4232C60.0127 48.1081 56.9003 51.9227 55.0626 56.3849C53.2249 60.8471 52.7444 65.7567 53.6818 70.4933C54.6191 75.2299 56.9323 79.581 60.3289 82.9967C69.7967 92.5201 85.2017 92.5166 94.673 82.9967C98.0715 79.5823 100.386 75.2315 101.325 70.4947C102.263 65.7578 101.783 60.8476 99.9447 56.3851C98.1066 51.9226 94.9932 48.1083 90.9982 45.4244C87.0032 42.7405 82.3061 41.3077 77.5009 41.3071" fill="#FFF5DD"/>
<path d="M77.5009 96.5379C73.4758 96.5453 69.4889 95.7529 65.7696 94.2063C62.0502 92.6596 58.6717 90.3893 55.8283 87.5257C43.8857 75.5077 43.8857 55.9533 55.8283 43.9388C67.7709 31.9244 87.2168 31.9244 99.163 43.9388C111.109 55.9533 111.109 75.5077 99.163 87.5257C96.3195 90.3893 92.941 92.6596 89.2217 94.2063C85.5023 95.7529 81.5155 96.5453 77.4904 96.5379H77.5009ZM77.4904 37.0207C73.7396 37.0141 70.0246 37.7529 66.559 39.1946C63.0933 40.6364 59.9455 42.7526 57.2965 45.4215C46.1613 56.6191 46.1613 74.8419 57.2965 86.043C68.4316 97.2441 86.5509 97.2406 97.6843 86.043C108.818 74.8454 108.819 56.6191 97.6843 45.4215C95.0366 42.7538 91.8904 40.6384 88.4266 39.1967C84.9629 37.755 81.2499 37.0155 77.5009 37.0207" fill="#FFF5DD"/>
<path d="M77.5009 100.84C72.9147 100.847 68.3724 99.9431 64.135 98.1797C59.8977 96.4163 56.0489 93.8285 52.8099 90.5649C39.1981 76.871 39.1981 54.5918 52.8099 40.8996C56.0511 37.6383 59.9001 35.0511 64.1368 33.2859C68.3734 31.5207 72.9147 30.6121 77.5009 30.6121C82.0871 30.6121 86.6284 31.5207 90.865 33.2859C95.1017 35.0511 98.9507 37.6383 102.192 40.8996C115.804 54.5918 115.804 76.871 102.192 90.5649C98.9529 93.8285 95.1041 96.4163 90.8668 98.1797C86.6294 99.9431 82.0871 100.847 77.5009 100.84ZM77.5009 32.7149C73.1872 32.7024 68.9139 33.5503 64.9286 35.2095C60.9432 36.8686 57.3249 39.306 54.2833 42.3806C41.4825 55.2558 41.4825 76.2052 54.2833 89.0822C67.0841 101.959 87.916 101.961 100.717 89.0822C113.518 76.2034 113.519 55.2558 100.717 42.3806C97.6761 39.3047 94.0584 36.866 90.0733 35.2056C86.0881 33.5452 81.8148 32.6963 77.5009 32.7079" fill="#FFF5DD"/>
<path d="M93.8074 65.6461L77.4028 82.1233L78.8767 83.6058L95.2812 67.1286L93.8074 65.6461Z" fill="#FFF5DD"/>
<path d="M93.8074 65.6461L77.4028 82.1233L78.8767 83.6058L95.2812 67.1286L93.8074 65.6461Z" fill="#FFF5DD"/>
<path d="M115.543 43.7981L55.668 103.959L57.1421 105.441L117.017 45.2803L115.543 43.7981Z" fill="#FFF5DD"/>
<path d="M97.8435 26L38 86.1926L39.4749 87.6741L99.3184 27.4814L97.8435 26Z" fill="#FFF5DD"/>
</svg>
