<svg width="89" height="89" viewBox="0 0 89 89" fill="none" xmlns="http://www.w3.org/2000/svg">
<rect x="9.56268" y="10.5626" width="76.5294" height="76.5294" fill="#284671"/>
<path d="M50.8672 88.2085C71.4902 88.2085 88.2085 71.4902 88.2085 50.8672C88.2085 30.2441 71.4902 13.5259 50.8672 13.5259C30.2442 13.5259 13.5259 30.2441 13.5259 50.8672C13.5259 71.4902 30.2442 88.2085 50.8672 88.2085Z" stroke="#050505" stroke-miterlimit="10"/>
<path d="M44.2609 87.2446C27.0753 87.2446 11.4571 71.6263 11.4571 54.4407C11.4571 37.2551 37.2471 11.4649 54.4327 11.4649C71.6184 11.4649 87.2369 27.0832 87.2369 44.2688C87.2369 61.4544 61.4465 87.2446 44.2609 87.2446Z" stroke="#050505" stroke-miterlimit="10"/>
<path d="M37.6549 86.2651C23.9017 86.2651 9.38043 71.7439 9.38043 57.9907C9.38043 44.2375 44.2454 9.40387 57.9672 9.40387C71.6891 9.40387 86.2417 23.9251 86.2417 37.6783C86.2417 51.4315 51.4081 86.2651 37.6549 86.2651Z" stroke="#050505" stroke-miterlimit="10"/>
<path d="M31.0485 85.2934C20.7355 85.2934 7.31146 71.8693 7.31146 61.5563C7.31146 51.2434 51.2435 7.31158 61.5564 7.31158C71.8693 7.31158 85.3325 20.7042 85.3325 31.0485C85.3325 41.3928 41.3614 85.2934 31.0485 85.2934Z" stroke="#050505" stroke-miterlimit="10"/>
<path d="M24.4422 84.3216C17.5695 84.3216 5.24255 71.9947 5.24255 65.122C5.24255 58.2493 58.2493 5.24271 65.1219 5.24271C71.9946 5.24271 84.3216 17.5696 84.3216 24.4423C84.3216 31.315 31.3227 84.3216 24.4422 84.3216Z" stroke="#050505" stroke-miterlimit="10"/>
<path d="M17.8362 83.3498C14.3959 83.3498 3.17395 72.1278 3.17395 68.6876C3.17395 65.2473 65.2472 3.1738 68.6874 3.1738C72.1277 3.1738 83.35 14.3957 83.35 17.836C83.35 21.2763 21.2764 83.3498 17.8362 83.3498Z" stroke="#050505" stroke-miterlimit="10"/>
<path d="M82.3794 11.2329L72.2557 1.10916L1.1055 72.2594L11.2292 82.3831L82.3794 11.2329Z" stroke="#050505" stroke-miterlimit="10"/>
</svg>
