<svg width="87" height="87" viewBox="0 0 87 87" fill="none" xmlns="http://www.w3.org/2000/svg">
<path d="M86.0105 0.0219116H0.0104847V86.0219H86.0105V0.0219116Z" fill="#E5BCA9"/>
<path d="M65.0104 21.0215H21.0104V65.0215H65.0104V21.0215Z" fill="#284671"/>
<path d="M22.6881 19.6499C23.5514 18.9559 24.3808 18.2111 25.2779 17.5763C28.5955 15.2405 32.2432 13.6409 36.1956 12.7522C39.2255 12.0752 42.2807 11.872 45.3783 12.1005C49.9993 12.4391 54.3156 13.7594 58.3272 16.0445C63.0243 18.7189 66.7736 22.392 69.575 27.013C71.3015 29.8651 72.5117 32.9204 73.2565 36.1618C73.9166 39.0817 74.1536 42.0354 73.9505 45.006C73.4427 52.2929 70.7091 58.6404 65.7834 64.04C65.6818 64.15 65.5549 64.2347 65.4364 64.3278C65.4787 64.2262 65.521 64.1247 65.5549 64.0231C65.6818 63.6676 65.5464 63.2699 65.2248 63.0667C64.9032 62.8636 64.48 62.9059 64.2261 63.1598C63.9468 63.4391 63.9045 63.8792 64.1161 64.2008C64.3361 64.514 64.7339 64.6409 65.0809 64.497C65.2079 64.4462 65.3264 64.3701 65.4449 64.3108C65.0725 64.6832 64.6916 65.0641 64.3192 65.4365C64.3531 65.3603 64.3785 65.2841 64.4208 65.2164C64.5562 64.9371 64.5139 64.6578 64.2515 64.5224C64.0738 64.4293 63.7437 64.4039 63.6083 64.514C63.456 64.6325 63.3713 64.9456 63.4052 65.1572C63.4475 65.4619 63.7268 65.5549 64.023 65.5126C64.133 65.4957 64.2346 65.4534 64.3362 65.428C63.7268 65.9866 63.1513 66.579 62.5081 67.0953C59.1566 69.8205 55.3904 71.7501 51.2265 72.9011C47.8834 73.8236 44.4812 74.1706 41.0282 73.9421C34.7907 73.5274 29.1626 71.4285 24.1777 67.6369C20.4369 64.7933 17.5085 61.264 15.3758 57.0916C13.7593 53.9433 12.7268 50.6003 12.2697 47.0795C11.9735 44.7775 11.9143 42.4755 12.1259 40.1734C12.6337 34.6638 14.4872 29.6451 17.6778 25.1172C19.0658 23.1368 20.6738 21.351 22.4935 19.7514C22.5527 19.7006 22.6373 19.6668 22.705 19.6245C22.6627 19.7091 22.6119 19.7853 22.5696 19.8699C22.4004 20.1661 22.4258 20.4962 22.705 20.657C22.9082 20.7755 23.2467 20.8009 23.4667 20.7162C23.7714 20.5893 23.8137 20.2423 23.6952 19.9461C23.5683 19.6329 23.2975 19.5229 22.9758 19.5737C22.8743 19.5991 22.7812 19.6245 22.6881 19.6499ZM62.3896 19.3198C62.3981 19.2521 62.4404 19.1674 62.415 19.1251C62.3473 19.0236 62.2542 18.9389 62.1611 18.8458C62.0849 18.922 61.941 19.0236 61.9495 19.0574C61.9918 19.159 62.0934 19.2521 62.1949 19.3283C62.2372 19.3621 62.3304 19.3198 62.3981 19.3113C62.3727 19.4213 62.288 19.5568 62.3304 19.6245C62.3981 19.743 62.5419 19.8868 62.652 19.8868C62.762 19.8783 62.9313 19.7176 62.9482 19.6075C62.9566 19.4975 62.8128 19.3536 62.7027 19.2775C62.6435 19.2182 62.4996 19.2944 62.3896 19.3198ZM62.3896 66.6975C62.4573 66.7229 62.5419 66.7821 62.5843 66.7652C62.7197 66.6806 62.8466 66.5705 62.9736 66.469C62.8551 66.3505 62.7451 66.2405 62.6266 66.122C62.5335 66.2574 62.4234 66.3759 62.3473 66.5198C62.3219 66.5621 62.3896 66.6467 62.4065 66.7144C62.3473 66.706 62.2796 66.6806 62.2457 66.6975C62.1357 66.7737 62.0511 66.8668 61.9495 66.9599C62.0257 67.036 62.1018 67.1038 62.1695 67.1799C62.2457 67.0699 62.3388 66.9683 62.4065 66.8583C62.4319 66.816 62.3981 66.7483 62.3896 66.6975ZM40.368 39.5556C40.4188 39.4794 40.5204 39.3948 40.5204 39.3186C40.5119 39.1409 40.5034 38.9208 40.4019 38.7939C40.3341 38.7093 40.0633 38.6754 39.9618 38.7431C39.8348 38.8193 39.7079 39.0563 39.7417 39.1747C39.784 39.3186 39.9872 39.4286 40.131 39.5302C40.1903 39.5725 40.2918 39.5387 40.3765 39.5387C40.3257 39.5979 40.2749 39.6656 40.2241 39.7249C39.9364 40.0803 39.9279 40.5543 40.2241 40.8674C40.5034 41.1636 40.9604 41.2313 41.299 41.0198C41.6375 40.8082 41.7898 40.3596 41.646 39.9957C41.4852 39.5979 41.0451 39.3779 40.6134 39.4879C40.5288 39.5217 40.4526 39.5387 40.368 39.5556ZM40.368 46.4617C40.4526 46.4786 40.5288 46.4955 40.6134 46.5209C41.1128 46.6479 41.5783 46.3686 41.6798 45.8608C41.7729 45.4207 41.4429 44.9468 40.9858 44.879C40.478 44.8029 39.9956 45.1583 40.021 45.6746C40.0379 45.9454 40.2495 46.2078 40.3765 46.4786C40.2749 46.4786 40.1818 46.4702 40.0802 46.4871C39.7925 46.5379 39.6656 46.741 39.7163 47.0033C39.7756 47.2826 40.0041 47.3926 40.2665 47.3165C40.5373 47.2318 40.6134 47.0033 40.5288 46.741C40.5034 46.6394 40.4273 46.5463 40.368 46.4617ZM63.9976 35.8148C64.1076 35.8741 64.2177 35.9333 64.3277 35.9925C64.7932 36.2126 65.3687 36.0095 65.5803 35.5524C65.7918 35.0785 65.5803 34.5115 65.1148 34.3084C64.6239 34.0968 64.1246 34.2999 63.8961 34.7992C63.7183 35.1801 63.8707 35.5017 64.0145 35.8317C63.9553 35.7979 63.8876 35.7386 63.8284 35.7471C63.6506 35.7725 63.4306 35.781 63.329 35.8994C63.2529 35.9841 63.2782 36.2549 63.3629 36.3649C63.439 36.458 63.7268 36.5173 63.7945 36.4496C63.913 36.3311 63.9469 36.1195 64.0061 35.9418C64.023 35.8994 64.0061 35.8571 63.9976 35.8148ZM63.9976 50.2025C64.0061 50.1348 64.0484 50.0586 64.023 49.9994C63.9638 49.847 63.913 49.6439 63.7945 49.5762C63.693 49.517 63.4475 49.5677 63.3544 49.6608C63.2698 49.7455 63.2359 49.9993 63.3036 50.0924C63.3883 50.2109 63.5914 50.2533 63.7522 50.2871C63.8284 50.304 63.9299 50.2194 64.0145 50.1855C63.9722 50.2871 63.9215 50.3887 63.8791 50.4902C63.7183 50.8711 63.8368 51.3366 64.1584 51.5905C64.4885 51.8528 64.9624 51.8613 65.2925 51.6074C65.6226 51.3535 65.7495 50.9049 65.5972 50.5156C65.4448 50.1263 65.0471 49.8809 64.6155 49.957C64.4039 49.9909 64.2007 50.1178 63.9976 50.2025ZM72.3932 37.2367C72.334 37.3298 72.224 37.4144 72.2155 37.5075C72.2071 37.7698 72.1732 38.0661 72.2748 38.2861C72.4102 38.5739 72.7318 38.6077 73.0195 38.4977C73.3073 38.3961 73.4766 38.1676 73.4596 37.846C73.4427 37.5159 73.2565 37.279 72.9434 37.2028C72.7656 37.1605 72.5625 37.2282 72.3678 37.2451C72.4609 37.1605 72.5541 37.0843 72.6387 36.9997C73.2057 36.4496 73.1888 35.5271 72.6048 35.0193C71.9955 34.4945 71.1322 34.5792 70.6413 35.2139C70.1589 35.8487 70.3197 36.7119 71.0053 37.152C71.4623 37.4482 71.9278 37.3467 72.3932 37.2367ZM15.3419 55.3566C15.215 55.1958 15.105 55.035 14.9611 54.8911C14.9442 54.8742 14.7156 55.0012 14.6903 55.0858C14.6564 55.1958 14.741 55.4413 14.7749 55.4413C14.9695 55.4328 15.1642 55.382 15.3588 55.3397C14.8426 56.9224 16.019 58.0226 17.2547 57.9126C18.1856 57.8279 18.9981 56.8462 18.8627 55.8983C18.7188 54.8827 17.7286 54.1549 16.7892 54.3157C16.1206 54.4257 15.7059 54.8488 15.3419 55.3566ZM40.2157 72.7065C40.1649 72.8249 40.1141 72.935 40.0802 73.0535C39.9956 73.3328 40.2072 73.7051 40.4865 73.7982C40.7996 73.9083 41.1466 73.7305 41.2736 73.4089C41.3836 73.1212 41.2313 72.7149 40.9266 72.6557C40.6981 72.6134 40.4442 72.698 40.1987 72.7234C40.2749 72.6303 40.3511 72.5287 40.4357 72.4356C41.2567 71.5216 41.5613 70.4721 41.2567 69.2788C40.7912 67.493 38.9716 66.4267 37.1943 66.8922C35.4085 67.3576 34.3337 69.2111 34.8161 70.9969C35.2477 72.6134 36.8811 73.7051 38.523 73.392C39.1154 73.282 39.6571 72.9434 40.2157 72.7065ZM26.3189 28.0878C26.4035 28.1301 26.5051 28.1555 26.5812 28.2063C28.0031 29.1034 29.5349 29.4335 31.2107 29.2219C34.376 28.8241 37.5328 25.8281 36.9573 21.571C36.4495 17.8472 33.0642 15.342 29.3572 15.816C26.2258 16.2138 23.526 18.8458 23.4752 22.5274C23.4583 23.9915 23.8984 25.371 24.8209 26.5305C25.2694 27.0976 25.8195 27.58 26.3273 28.0962C26.2427 28.0962 26.1581 28.0962 26.0734 28.1047C25.8026 28.1555 25.6503 28.3502 25.7687 28.5871C25.8365 28.7226 26.1073 28.8579 26.2512 28.8241C26.5135 28.7733 26.5558 28.5279 26.4458 28.2825C26.4204 28.2232 26.3612 28.1555 26.3189 28.0878ZM50.8033 14.0641C43.0847 13.971 36.4156 20.183 36.2971 28.274C36.1787 36.6019 42.8647 42.7124 50.2616 42.9494C58.5134 43.2033 65.0894 36.5511 65.1994 28.731C65.3094 20.5977 58.6657 14.0133 50.8033 14.0641ZM50.7694 43.0848C43.0593 42.9663 36.1363 49.3561 36.2971 57.7856C36.441 65.7073 42.8308 71.7163 50.2532 71.9532C58.5726 72.2241 65.1063 65.4957 65.1994 57.7094C65.301 49.5339 58.5811 43.0002 50.7694 43.0848ZM40.131 43.0171C40.1903 35.307 33.6904 28.6802 25.5318 29.0103C18.3295 29.2981 12.1682 35.2732 12.1174 42.9409C12.0666 50.6002 18.3887 57.2524 26.5812 57.0155C33.9697 56.8039 40.148 50.6849 40.131 43.0171ZM73.8997 43.0171C73.9336 39.3102 70.9629 35.9079 66.7821 35.9248C62.982 35.9333 59.749 38.9124 59.7321 43.0002C59.7152 47.0287 62.9989 50.2194 67.0613 50.0924C70.9291 49.9655 73.8997 46.8002 73.8997 43.0171ZM37.0165 63.4984C37.0504 59.7576 34.0544 56.7362 30.2374 56.7277C26.7251 56.7192 23.526 59.4444 23.5006 63.4645C23.4752 67.4169 26.5982 70.1675 30.102 70.2606C34.1221 70.3706 37.1435 66.9429 37.0165 63.4984ZM68.3647 50.1094C66.3589 50.1178 64.8694 51.6328 64.8694 53.6555C64.8694 55.4244 66.452 57.0155 68.2124 57.0155C70.2774 57.0155 71.8008 55.5175 71.7839 53.5116C71.7754 51.6412 70.2182 50.0924 68.3647 50.1094ZM68.3308 35.9079C70.1759 35.9333 71.767 34.4099 71.7924 32.5903C71.8177 30.5421 70.3451 29.0272 68.297 29.0018C66.5197 28.9764 64.9201 30.5083 64.8778 32.2772C64.8186 34.3168 66.3081 35.8741 68.3308 35.9079ZM38.0321 19.2267C39.8263 19.2436 41.3667 17.8048 41.3751 15.8752C41.3836 14.081 39.8348 12.5237 38.066 12.5576C35.9755 12.5915 34.6722 14.2502 34.6976 15.9937C34.7399 17.7541 36.2464 19.2436 38.0321 19.2267ZM24.1438 59.6222C24.2369 58.0141 22.8828 56.3638 20.9531 56.3299C19.1335 56.2961 17.6017 57.8026 17.6355 59.6052C17.6694 61.3825 19.0066 62.8467 20.8939 62.8552C23.0605 62.8552 24.2369 60.9932 24.1438 59.6222ZM24.1438 26.4798C24.2454 24.9987 23.0774 23.1621 20.8854 23.1621C18.9812 23.1621 17.644 24.6432 17.6355 26.4205C17.6271 28.3332 19.2351 29.7382 20.9954 29.6874C22.6966 29.6451 24.1353 28.2148 24.1438 26.4798ZM40.2411 43.0002C40.2326 44.1766 41.2397 45.1922 42.4161 45.1922C43.5756 45.1922 44.5573 44.2104 44.5912 43.034C44.6166 41.883 43.601 40.8082 42.4246 40.8336C41.1128 40.859 40.2749 41.8576 40.2411 43.0002ZM67.1883 60.8747C68.1447 60.9171 69.1179 60.1553 69.1349 58.9197C69.1518 57.8872 68.2293 57.0155 67.2052 57.0239C66.0711 57.0324 65.2502 57.8703 65.2502 59.0128C65.2587 60.0453 66.1219 60.8747 67.1883 60.8747ZM67.1968 25.151C66.1389 25.1426 65.2671 25.9804 65.2587 27.013C65.2502 28.1555 66.0796 28.9934 67.2052 29.0103C68.2462 29.0188 69.1433 28.1301 69.1433 27.0806C69.1433 26.0143 68.2716 25.1595 67.1968 25.151ZM42.9916 70.159C41.9507 70.159 41.1382 70.963 41.1382 71.9955C41.1382 73.0873 41.9422 73.8998 43.017 73.8998C44.058 73.8998 44.8705 73.0704 44.8705 72.0125C44.879 70.963 44.058 70.159 42.9916 70.159ZM44.879 14.0133C44.879 12.9554 44.0665 12.1175 43.034 12.1175C41.9507 12.1175 41.1382 12.93 41.1382 14.0048C41.1382 15.0542 41.9591 15.8583 43.0255 15.8498C44.058 15.8498 44.879 15.0373 44.879 14.0133ZM17.0431 28.1132C16.019 28.1216 15.2319 28.8833 15.2404 29.882C15.2404 30.8891 16.0529 31.727 17.0346 31.7439C17.9994 31.7524 18.8711 30.8891 18.8711 29.9159C18.8711 28.9003 18.0671 28.1047 17.0431 28.1132ZM59.5967 43.0171C59.5967 42.1031 58.8942 41.3668 57.9971 41.3414C57.1085 41.3244 56.3383 42.0946 56.3383 43.0002C56.3383 43.9142 57.0915 44.6759 57.9887 44.6675C58.8773 44.6675 59.5967 43.9227 59.5967 43.0171ZM34.6552 28.1978C33.7581 28.1894 33.0472 28.8918 33.0218 29.7974C33.0049 30.6183 33.7666 31.3885 34.6129 31.4054C35.4677 31.4223 36.2294 30.686 36.2379 29.8397C36.2464 28.9341 35.5439 28.2063 34.6552 28.1978ZM34.6299 57.8195C35.527 57.8195 36.2379 57.1085 36.2379 56.2114C36.2379 55.3651 35.5101 54.6288 34.6468 54.6119C33.8089 54.5949 33.0134 55.3905 33.0218 56.2368C33.0388 57.0916 33.7666 57.811 34.6299 57.8195ZM71.7331 48.6706C70.9883 48.6621 70.3705 49.2546 70.362 49.974C70.3536 50.6933 71.0222 51.3704 71.7331 51.3619C72.4779 51.345 73.0619 50.7272 73.0619 49.957C73.0619 49.2377 72.4863 48.6791 71.7331 48.6706ZM33.4027 69.7528C32.6833 69.7528 32.1162 70.3198 32.1247 71.0392C32.1332 71.7501 32.7087 72.3087 33.4365 72.3002C34.1221 72.2918 34.706 71.7078 34.706 71.0307C34.6891 70.3283 34.1136 69.7528 33.4027 69.7528ZM33.3942 13.7171C32.6748 13.7255 32.0993 14.3095 32.1247 15.012C32.1501 15.7398 32.7087 16.273 33.445 16.256C34.1305 16.2476 34.6976 15.6721 34.706 14.9866C34.706 14.301 34.0967 13.7086 33.3942 13.7171ZM22.1465 65.301C22.8489 65.301 23.399 64.7509 23.399 64.0485C23.399 63.3376 22.8658 62.8044 22.138 62.8128C21.444 62.8128 20.8939 63.346 20.8854 64.0231C20.877 64.7509 21.4101 65.301 22.1465 65.301ZM22.1718 20.7247C21.4186 20.7162 20.9024 21.224 20.8939 21.9773C20.8939 22.6713 21.4186 23.196 22.1126 23.2045C22.8574 23.2129 23.3906 22.6967 23.3906 21.9434C23.3906 21.2579 22.8658 20.7332 22.1718 20.7247ZM65.9019 22.8659C65.2502 22.8659 64.6747 23.4245 64.6747 24.0677C64.6747 24.7448 65.2417 25.3203 65.9103 25.3118C66.5536 25.3033 67.0698 24.7617 67.0783 24.1016C67.0952 23.433 66.5535 22.8659 65.9019 22.8659ZM67.0867 61.9496C67.0952 61.2725 66.562 60.7139 65.9188 60.7139C65.2502 60.7055 64.6916 61.2725 64.6832 61.9496C64.6747 62.6013 65.2248 63.1514 65.885 63.1598C66.5282 63.1598 67.0783 62.6097 67.0867 61.9496ZM46.1061 73.7305C46.7832 73.739 47.3164 73.2143 47.3164 72.5457C47.3164 71.9194 46.7494 71.3693 46.1146 71.3693C45.5052 71.3777 44.9636 71.9194 44.9551 72.5372C44.9467 73.1973 45.4545 73.7221 46.1061 73.7305ZM46.1315 12.2868C45.4714 12.2868 44.9551 12.7945 44.9551 13.4547C44.9551 14.0894 45.5052 14.648 46.1315 14.648C46.7409 14.648 47.3079 14.0979 47.3164 13.497C47.3249 12.8284 46.8001 12.2868 46.1315 12.2868ZM15.2235 31.2277C14.5887 31.2277 14.0809 31.7101 14.0809 32.3195C14.0809 32.9542 14.5887 33.4705 15.2319 33.4705C15.8328 33.4705 16.3406 32.9711 16.3575 32.3872C16.3575 31.7524 15.8582 31.2361 15.2235 31.2277ZM15.2065 54.7896C15.8328 54.7896 16.3321 54.2987 16.3491 53.6894C16.3575 53.0546 15.8497 52.5553 15.1981 52.5553C14.5802 52.5553 14.0725 53.0631 14.0809 53.6809C14.0894 54.3072 14.5718 54.7811 15.2065 54.7896ZM36.8134 20.2084C36.8134 20.7416 37.1858 21.1225 37.7021 21.1225C38.176 21.1225 38.5907 20.7078 38.5992 20.2423C38.5992 19.7599 38.1675 19.3198 37.6936 19.3198C37.2196 19.3113 36.8219 19.7176 36.8134 20.2084ZM36.8134 65.8173C36.8134 66.3082 37.2196 66.7144 37.6936 66.706C38.1845 66.706 38.6076 66.2659 38.5992 65.7835C38.5907 65.318 38.1675 64.9033 37.7021 64.9033C37.1773 64.9033 36.8134 65.2757 36.8134 65.8173ZM24.8462 27.1822C24.3554 27.1738 23.9576 27.5631 23.9491 28.0455C23.9407 28.5279 24.3385 28.9426 24.8124 28.9426C25.2864 28.9426 25.7095 28.5448 25.7264 28.0709C25.7434 27.6308 25.3033 27.1907 24.8462 27.1822ZM24.8209 58.8351C25.2948 58.8351 25.7264 58.4288 25.7264 57.9633C25.7349 57.5063 25.3033 57.0747 24.8378 57.0662C24.3638 57.0578 23.9491 57.4555 23.9491 57.9379C23.9407 58.4288 24.33 58.8266 24.8209 58.8351ZM46.3939 43.0002C46.3939 42.5262 46.0046 42.1623 45.5222 42.1623C45.0482 42.1623 44.6928 42.5432 44.7012 43.0425C44.7097 43.508 45.0821 43.8634 45.5391 43.855C46.0384 43.8465 46.3939 43.4826 46.3939 43.0002ZM65.5972 22.2735C65.6141 21.8419 65.2587 21.4526 64.827 21.4356C64.4039 21.4187 64.0061 21.7826 63.9892 22.2142C63.9638 22.6712 64.3277 23.0606 64.7847 23.069C65.2163 23.086 65.5887 22.722 65.5972 22.2735ZM48.222 12.5491C47.8073 12.5322 47.418 12.9215 47.4095 13.3531C47.401 13.7763 47.7565 14.1402 48.1627 14.1487C48.6197 14.1572 48.9667 13.8355 48.9921 13.3785C49.0175 12.9554 48.6536 12.5661 48.222 12.5491ZM47.4095 72.6388C47.401 73.0704 47.7734 73.4597 48.1966 73.4682C48.6028 73.4766 48.9837 73.1127 49.0006 72.7065C49.0175 72.2494 48.6621 71.8771 48.1881 71.8686C47.7734 71.8686 47.418 72.2156 47.4095 72.6388ZM13.4715 51.9544C13.48 52.386 13.7931 52.6738 14.2332 52.6738C14.6649 52.6738 15.0119 52.3183 14.9865 51.8867C14.9695 51.5058 14.5633 51.1419 14.1909 51.1588C13.7847 51.1927 13.4631 51.5397 13.4715 51.9544ZM14.2502 33.3351C13.8016 33.3266 13.4885 33.6144 13.4715 34.046C13.4546 34.4776 13.7931 34.8415 14.2163 34.85C14.5971 34.8585 14.9865 34.4776 14.9949 34.0968C15.0034 33.6905 14.6564 33.3435 14.2502 33.3351ZM54.798 43.0002C54.7895 43.3979 55.1027 43.7111 55.5174 43.7111C55.9151 43.7111 56.2029 43.4233 56.2114 43.0256C56.2198 42.6278 55.9321 42.3316 55.5428 42.3147C55.1281 42.2977 54.8064 42.5939 54.798 43.0002ZM36.568 54.1294C36.551 53.7571 36.2125 53.4693 35.8147 53.4947C35.4508 53.5116 35.1631 53.8332 35.1631 54.1887C35.1715 54.5611 35.51 54.8742 35.8909 54.8573C36.2717 54.8404 36.5764 54.5018 36.568 54.1294ZM35.1715 31.854C35.1715 32.2348 35.4847 32.5311 35.8824 32.5311C36.2548 32.5226 36.568 32.2264 36.5764 31.8709C36.5764 31.49 36.2633 31.1684 35.8824 31.16C35.4931 31.1515 35.163 31.4816 35.1715 31.854ZM72.1139 48.129C72.1055 48.5183 72.4102 48.8314 72.791 48.8314C73.1549 48.8314 73.4512 48.5352 73.4681 48.1713C73.4765 47.8073 73.1888 47.4942 72.8249 47.4773C72.4271 47.4604 72.1139 47.7481 72.1139 48.129ZM30.7367 70.9461C30.7452 71.31 31.016 71.5893 31.3715 71.5893C31.7354 71.5893 32.0232 71.2846 32.0062 70.9038C31.9978 70.5737 31.7015 70.2775 31.3969 70.2775C31.0245 70.2775 30.7283 70.5737 30.7367 70.9461ZM30.7367 15.0881C30.7367 15.4605 31.0499 15.7567 31.4138 15.7398C31.7439 15.7229 32.0232 15.4097 32.0062 15.0543C31.9978 14.6988 31.71 14.428 31.3545 14.4364C30.9906 14.4534 30.7367 14.7242 30.7367 15.0881ZM69.4903 58.2426C69.8627 58.2511 70.1758 57.9464 70.1674 57.591C70.1589 57.2694 69.8712 56.9816 69.5496 56.9731C69.1687 56.9647 68.9063 57.2101 68.8979 57.5825C68.8725 57.9549 69.1264 58.2342 69.4903 58.2426ZM69.5073 29.0526C69.8543 29.0611 70.1589 28.7733 70.1589 28.4348C70.1589 28.0878 69.8796 27.7916 69.5242 27.7831C69.1603 27.7747 68.8894 28.037 68.8894 28.4094C68.881 28.7733 69.1264 29.0357 69.5073 29.0526ZM23.0859 66.4521C23.4414 66.4605 23.7375 66.1812 23.7375 65.8258C23.7375 65.4703 23.4921 65.208 23.1451 65.1826C22.7897 65.1656 22.4765 65.428 22.4596 65.7835C22.4427 66.1051 22.7558 66.4436 23.0859 66.4521ZM40.0549 12.8369C40.0633 13.15 40.368 13.4378 40.6981 13.4208C41.0451 13.4124 41.3159 13.1416 41.3159 12.8115C41.3159 12.4645 41.0112 12.1852 40.6558 12.2021C40.3341 12.2106 40.0464 12.5153 40.0549 12.8369ZM58.6657 41.0536C58.6742 41.3837 58.9704 41.663 59.3005 41.646C59.639 41.6291 59.8591 41.3837 59.8591 41.0367C59.8506 40.6728 59.6052 40.4443 59.2412 40.4527C58.9112 40.4696 58.6573 40.732 58.6657 41.0536ZM59.2582 45.5646C59.6052 45.573 59.8506 45.3445 59.8591 45.006C59.876 44.6505 59.6305 44.3797 59.2751 44.3797C58.945 44.3712 58.6657 44.6505 58.6657 44.9891C58.6657 45.3107 58.9196 45.5561 59.2582 45.5646ZM16.4506 27.36C16.4422 27.6731 16.6961 27.9608 17.0177 27.9778C17.3477 27.9947 17.6524 27.7154 17.6524 27.3938C17.6524 27.0722 17.407 26.7929 17.0938 26.776C16.7638 26.7506 16.4591 27.0383 16.4506 27.36ZM17.0431 59.2413C17.3647 59.2498 17.627 58.9874 17.6439 58.6573C17.6609 58.3357 17.407 58.0565 17.0769 58.0395C16.7384 58.0226 16.4422 58.3019 16.4422 58.6404C16.4506 58.962 16.7299 59.2413 17.0431 59.2413ZM32.3701 29.1203C32.0401 29.1118 31.7608 29.3658 31.7608 29.6789C31.7523 29.9836 32.0316 30.2544 32.3617 30.2629C32.6664 30.2629 32.9287 30.0174 32.9372 29.7212C32.9372 29.3742 32.7087 29.1203 32.3701 29.1203ZM31.7608 56.3215C31.7523 56.6431 32.0147 56.897 32.3532 56.897C32.6918 56.897 32.9372 56.6515 32.9372 56.3215C32.9372 56.0252 32.6748 55.7629 32.3786 55.7544C32.0485 55.746 31.7693 56.0083 31.7608 56.3215ZM35.6285 28.2994C35.9501 28.2994 36.2294 28.0285 36.221 27.7154C36.221 27.4022 35.9417 27.1568 35.6031 27.1568C35.2815 27.1653 35.053 27.3853 35.0446 27.7154C35.0446 28.0455 35.2985 28.3079 35.6285 28.2994ZM35.6031 58.8689C35.9248 58.8774 36.2125 58.615 36.221 58.3019C36.221 57.9887 35.9501 57.701 35.6285 57.7179C35.29 57.7348 35.0784 57.9041 35.053 58.2596C35.0276 58.5981 35.2731 58.8605 35.6031 58.8689ZM63.346 21.0463C63.346 21.351 63.5998 21.5964 63.913 21.6049C64.2431 21.6134 64.5054 21.351 64.4885 21.0209C64.48 20.7162 64.2261 20.4877 63.9045 20.4877C63.5914 20.4962 63.346 20.7416 63.346 21.0463ZM49.1022 13.4124C49.1106 13.7255 49.3476 13.9794 49.6607 13.9794C49.9824 13.9794 50.2109 13.7509 50.2109 13.4208C50.2109 13.0823 49.9993 12.8707 49.6607 12.8707C49.3391 12.8623 49.1022 13.0908 49.1022 13.4124ZM49.1022 72.6134C49.1106 72.935 49.3476 73.155 49.6777 73.1466C50.0162 73.1381 50.2193 72.9265 50.2109 72.5795C50.2024 72.2494 49.9654 72.0209 49.6523 72.0294C49.3476 72.0463 49.1022 72.3087 49.1022 72.6134ZM14.1656 50.6595C14.1317 50.3548 13.9709 50.1348 13.6493 50.1263C13.3277 50.1178 13.133 50.321 13.0907 50.6426C13.0568 50.9388 13.3361 51.2265 13.6323 51.2096C13.9455 51.1842 14.1317 51.0065 14.1656 50.6595ZM13.6323 34.8077C13.3107 34.8161 13.133 35.0108 13.0822 35.3239C13.0484 35.5948 13.3192 35.874 13.5985 35.891C13.8778 35.9079 14.1402 35.6625 14.1571 35.3663C14.174 35.07 13.9455 34.8246 13.6323 34.8077ZM65.7072 29.7382C66.0881 29.7466 66.3674 29.5012 66.3335 29.2304C66.2997 28.9341 66.1304 28.7395 65.8257 28.7141C65.5464 28.6887 65.2841 28.9426 65.2925 29.2473C65.301 29.5519 65.4702 29.7297 65.7072 29.7382ZM65.284 56.7362C65.301 57.0832 65.5549 57.3371 65.8342 57.3032C66.1388 57.2693 66.3081 57.0662 66.3335 56.7785C66.3589 56.4992 66.0796 56.2622 65.7834 56.2791C65.4618 56.2961 65.3179 56.4823 65.284 56.7362ZM41.4682 16.2391C41.4767 16.5608 41.6544 16.7554 41.9591 16.7638C42.2723 16.7723 42.4669 16.5607 42.4754 16.2645C42.4754 15.9852 42.2977 15.7821 42.0014 15.7652C41.6883 15.7483 41.5021 15.9175 41.4682 16.2391ZM41.9083 70.2606C42.2723 70.2606 42.4584 70.0659 42.4754 69.7782C42.4923 69.4819 42.2892 69.2704 41.993 69.2534C41.6883 69.2365 41.4936 69.4142 41.4767 69.7358C41.4598 70.0574 41.646 70.2182 41.9083 70.2606ZM72.224 33.6059C71.75 33.5889 71.5723 33.7921 71.5638 34.0883C71.5554 34.3845 71.7416 34.5876 72.0716 34.5792C72.3678 34.5792 72.5456 34.4184 72.5625 34.1137C72.571 33.8005 72.4102 33.6228 72.224 33.6059ZM71.9108 51.4212C71.8177 51.5397 71.6231 51.7089 71.5723 51.9121C71.5046 52.1914 71.8008 52.4283 72.1055 52.4114C72.4102 52.3945 72.5625 52.2167 72.5625 51.9205C72.5625 51.5989 72.3679 51.455 71.9108 51.4212ZM18.905 55.8898C18.905 55.9575 18.8965 56.0253 18.8965 56.093C19.0743 56.2199 19.2351 56.423 19.4382 56.4653C19.7429 56.5246 19.9545 56.3045 19.946 55.9999C19.946 55.729 19.7598 55.4921 19.4636 55.5428C19.2689 55.5852 19.0912 55.7713 18.905 55.8898ZM19.362 30.5591C19.4297 30.5591 19.4974 30.5591 19.5567 30.5591C19.6921 30.3813 19.9121 30.2036 19.929 30.0174C19.9629 29.7212 19.7513 29.5266 19.4297 29.5435C19.125 29.5604 18.9304 29.7466 18.9896 30.0259C19.032 30.2121 19.2351 30.3813 19.362 30.5591ZM34.2152 13.6324C34.2152 13.7001 34.2152 13.7679 34.2152 13.8271C34.4014 13.954 34.5706 14.1741 34.7738 14.191C35.0446 14.2249 35.2392 14.0133 35.2392 13.7086C35.2392 13.4039 35.0361 13.2008 34.7653 13.2431C34.5706 13.2854 34.4014 13.5055 34.2152 13.6324ZM35.3154 72.4018C35.3154 72.3341 35.3154 72.2748 35.3154 72.2071C35.1377 72.0717 34.9684 71.8517 34.7738 71.8263C34.5114 71.7924 34.2998 71.9786 34.2913 72.2918C34.2829 72.6049 34.5029 72.7911 34.7568 72.7742C34.9515 72.7488 35.1292 72.5287 35.3154 72.4018ZM20.53 62.8552C20.4622 62.8552 20.403 62.8552 20.3353 62.8552C20.2084 63.0244 20.0052 63.1852 19.9798 63.3799C19.9291 63.6592 20.1407 63.9046 20.4284 63.8454C20.6061 63.8115 20.8685 63.5745 20.877 63.4137C20.8854 63.236 20.6569 63.0498 20.53 62.8552ZM20.4623 21.9603C20.2338 22.2481 20.0306 22.392 19.9798 22.5782C19.9121 22.8575 20.0983 23.0606 20.403 23.086C20.7077 23.1029 20.9108 22.8998 20.8854 22.629C20.877 22.4428 20.6654 22.2735 20.4623 21.9603ZM47.054 42.5178C46.9948 42.5178 46.9271 42.5093 46.8678 42.5093C46.7409 42.6617 46.5124 42.8225 46.5124 42.9748C46.5208 43.1356 46.7324 43.3641 46.8932 43.4149C47.164 43.4995 47.3756 43.2964 47.3503 43.0256C47.3418 42.8478 47.1641 42.687 47.054 42.5178ZM62.745 20.09C62.745 20.1577 62.745 20.2254 62.745 20.2931C62.9058 20.3946 63.0836 20.5977 63.2275 20.5723C63.3883 20.547 63.5067 20.3184 63.6506 20.183C63.5152 20.0476 63.3883 19.8276 63.2359 19.8106C63.0836 19.8022 62.9143 19.9884 62.745 20.09ZM63.3206 65.3434C63.2529 65.3434 63.1852 65.3434 63.1174 65.3434C63.0159 65.5042 62.8212 65.6734 62.8382 65.8258C62.8466 65.9697 63.1005 66.2151 63.2105 66.1982C63.3798 66.1728 63.5999 65.9696 63.6252 65.8088C63.6506 65.6819 63.4306 65.5042 63.3206 65.3434ZM50.8456 13.0654C50.7779 13.0654 50.7187 13.0569 50.651 13.0569C50.5409 13.2177 50.3378 13.387 50.3547 13.5309C50.3632 13.6748 50.5832 13.8863 50.7356 13.9117C50.9726 13.9625 51.1757 13.7763 51.1334 13.5139C51.108 13.3531 50.9472 13.2093 50.8456 13.0654ZM50.7525 73.0789C50.9387 72.808 51.0995 72.6642 51.1334 72.5033C51.1841 72.2325 50.9641 72.0548 50.7271 72.1056C50.5748 72.1394 50.3717 72.3595 50.3547 72.5118C50.3378 72.6388 50.5494 72.7996 50.7525 73.0789ZM73.1295 47.5196C73.1888 47.5196 73.248 47.5281 73.3073 47.5281C73.4173 47.3757 73.6289 47.2149 73.612 47.071C73.595 46.9187 73.375 46.7918 73.2396 46.6563C73.1126 46.7833 72.8926 46.9018 72.8756 47.0372C72.8587 47.1811 73.0365 47.3503 73.1295 47.5196ZM36.915 21.5795C37.1773 21.7826 37.3297 21.9942 37.4736 21.9773C37.609 21.9688 37.8121 21.7403 37.8375 21.5879C37.8544 21.4779 37.6343 21.2325 37.5074 21.224C37.3466 21.2156 37.1858 21.4017 36.915 21.5795ZM26.1412 56.9731C25.955 57.2186 25.7688 57.3624 25.7772 57.4979C25.7857 57.6417 25.9888 57.7687 26.0988 57.9041C26.2343 57.7772 26.4458 57.6671 26.4797 57.5148C26.5051 57.3963 26.3104 57.227 26.1412 56.9731ZM73.3581 38.5062C73.2988 38.5062 73.2396 38.4977 73.1803 38.4977C73.0703 38.65 72.8672 38.8108 72.8756 38.9462C72.8926 39.0986 73.1126 39.2255 73.2396 39.3609C73.375 39.234 73.595 39.124 73.612 38.9886C73.6289 38.8447 73.4512 38.6754 73.3581 38.5062ZM37.5751 63.9639C37.5159 63.9639 37.4566 63.9639 37.3889 63.9639C37.2874 64.1162 37.0927 64.2855 37.1096 64.4209C37.1266 64.5647 37.3551 64.6832 37.4905 64.8102C37.609 64.6832 37.8205 64.5563 37.829 64.4209C37.8459 64.277 37.6682 64.1162 37.5751 63.9639ZM13.2261 49.1361C13.0484 49.4154 12.8622 49.5847 12.8961 49.7031C12.9299 49.8555 13.1415 49.9655 13.2769 50.0924C13.3954 49.9655 13.6154 49.8386 13.6154 49.7031C13.6154 49.5593 13.4208 49.4069 13.2261 49.1361ZM13.243 35.7302C13.0653 36.001 12.913 36.1449 12.8791 36.2972C12.8368 36.5427 13.0145 36.7288 13.2515 36.6781C13.3954 36.6442 13.607 36.4411 13.607 36.3141C13.6154 36.1618 13.4292 36.0095 13.243 35.7302ZM69.338 36.0772C69.6004 36.2634 69.7527 36.4496 69.9135 36.458C70.0235 36.458 70.2351 36.221 70.2351 36.0856C70.2351 35.9671 70.0235 35.764 69.8881 35.7471C69.7527 35.7302 69.6004 35.9079 69.338 36.0772ZM69.3634 49.957C69.6003 50.1094 69.7527 50.2871 69.8881 50.2702C70.0235 50.2533 70.252 50.0163 70.2266 49.9401C70.1843 49.7878 70.0066 49.5846 69.8627 49.5677C69.7527 49.5508 69.6003 49.7709 69.3634 49.957ZM29.7296 15.2235C29.9666 15.4182 30.102 15.6213 30.2289 15.6128C30.3643 15.6128 30.4997 15.4097 30.6352 15.2997C30.5251 15.1643 30.4236 14.9527 30.2882 14.9273C30.1697 14.9104 30.0004 15.0712 29.7296 15.2235ZM29.7381 70.7768C29.992 70.9292 30.1612 71.0984 30.2882 71.0815C30.4236 71.0561 30.5251 70.853 30.6436 70.7176C30.5082 70.5991 30.3813 70.396 30.2459 70.3875C30.1189 70.3875 29.9751 70.5906 29.7381 70.7768ZM54.324 43.5334C54.4848 43.2964 54.671 43.1525 54.6626 43.0171C54.6541 42.8817 54.451 42.7547 54.3325 42.6278C54.1971 42.7632 53.9855 42.8732 53.9517 43.0256C53.9347 43.1441 54.1463 43.2964 54.324 43.5334ZM36.4918 52.6484C36.2971 52.8938 36.094 53.0292 36.1025 53.1562C36.1109 53.2831 36.3141 53.4693 36.458 53.4947C36.5595 53.5116 36.788 53.3085 36.7965 53.19C36.8134 53.0546 36.6526 52.9023 36.4918 52.6484ZM33.7835 69.4989C34.0205 69.6766 34.1559 69.8543 34.2913 69.8628C34.4014 69.8628 34.6214 69.6427 34.6129 69.5412C34.596 69.4058 34.4183 69.2111 34.2829 69.1857C34.1728 69.1519 34.0205 69.3381 33.7835 69.4989ZM33.7666 16.5015C34.0205 16.6707 34.1644 16.84 34.2998 16.84C34.4098 16.84 34.6045 16.6284 34.6045 16.5099C34.6045 16.383 34.4183 16.1629 34.3083 16.1629C34.1729 16.1545 34.029 16.3237 33.7666 16.5015ZM36.4495 33.3774C36.6272 33.132 36.8049 32.9965 36.8049 32.8526C36.8049 32.7342 36.5934 32.5141 36.4918 32.5226C36.3479 32.5395 36.1279 32.7003 36.1025 32.8357C36.0855 32.9542 36.2802 33.115 36.4495 33.3774ZM23.2213 66.6806C23.4837 66.8668 23.6191 67.0445 23.763 67.0445C23.8814 67.0445 24.0084 66.8498 24.1269 66.7398C24.0084 66.6129 23.9153 66.4013 23.7799 66.3759C23.6529 66.359 23.4921 66.5282 23.2213 66.6806ZM23.2297 19.3367C23.5006 19.489 23.6614 19.6583 23.7968 19.6329C23.9322 19.6075 24.1015 19.4044 24.1184 19.269C24.1269 19.1759 23.8984 18.9643 23.7714 18.9728C23.6191 18.9728 23.4836 19.1505 23.2297 19.3367ZM23.0605 63.1175C23.2297 62.8975 23.416 62.762 23.416 62.6351C23.416 62.4997 23.2298 62.3812 23.1197 62.2458C22.9843 62.3643 22.7897 62.4658 22.7474 62.6097C22.722 62.7197 22.9081 62.8805 23.0605 63.1175ZM22.5866 23.3822C22.7981 23.5515 22.9335 23.7376 23.0605 23.7376C23.1874 23.7376 23.3144 23.543 23.4498 23.4414C23.3313 23.306 23.2298 23.1029 23.0859 23.069C22.9759 23.0436 22.8151 23.2299 22.5866 23.3822ZM66.9598 24.7025C67.1883 24.8548 67.3322 25.0325 67.4422 25.0156C67.5776 24.9987 67.6792 24.804 67.7977 24.694C67.6707 24.5671 67.5607 24.3809 67.4168 24.347C67.3322 24.3131 67.1798 24.5247 66.9598 24.7025ZM67.4337 61.8311C67.5945 61.6195 67.7892 61.4672 67.7723 61.3571C67.7469 61.2133 67.5522 61.1032 67.4253 60.9847C67.3152 61.1032 67.1206 61.2217 67.1121 61.3402C67.1121 61.4672 67.2814 61.611 67.4337 61.8311ZM44.2865 73.5359C44.5574 73.6797 44.7012 73.8152 44.8367 73.8067C44.9467 73.7982 45.1159 73.5951 45.1075 73.4936C45.0905 73.3751 44.9128 73.1889 44.8028 73.1889C44.6758 73.1973 44.5404 73.3581 44.2865 73.5359ZM64.1923 52.1998C64.4123 52.3691 64.5477 52.5384 64.6747 52.5384C64.7847 52.5384 64.9963 52.3268 64.9794 52.2421C64.9625 52.1152 64.7932 51.9459 64.6578 51.9121C64.5647 51.8951 64.4208 52.0559 64.1923 52.1998ZM44.3035 12.5153C44.5489 12.6761 44.6843 12.8284 44.8197 12.8284C44.9213 12.8284 45.0228 12.6253 45.1244 12.5153C45.0059 12.4137 44.8959 12.236 44.7689 12.2191C44.6674 12.1937 44.532 12.3545 44.3035 12.5153ZM64.6747 34.2576C64.827 34.0544 65.0132 33.9106 64.9878 33.8175C64.954 33.682 64.7847 33.572 64.6662 33.4536C64.5562 33.572 64.3869 33.682 64.3616 33.8175C64.3446 33.919 64.5139 34.0544 64.6747 34.2576ZM14.9442 31.2616C15.1134 31.0669 15.3081 30.9484 15.2996 30.8468C15.2827 30.7199 15.1219 30.5506 14.9865 30.5083C14.9103 30.4829 14.6987 30.6776 14.6818 30.7961C14.6649 30.9061 14.8172 31.05 14.9442 31.2616ZM38.3791 19.5398C38.5822 19.7091 38.7007 19.8868 38.8107 19.8784C38.9292 19.8699 39.1239 19.7006 39.1324 19.5906C39.1408 19.4806 38.9715 19.2944 38.8531 19.269C38.7515 19.2436 38.6076 19.4044 38.3791 19.5398ZM38.8277 65.9866C38.6838 66.1982 38.5315 66.3336 38.5399 66.4521C38.5568 66.5706 38.743 66.7567 38.8361 66.7483C38.9546 66.7398 39.1324 66.5621 39.1408 66.4436C39.1578 66.3251 38.9885 66.1982 38.8277 65.9866ZM51.108 72.3849C51.3534 72.5287 51.4888 72.6811 51.5904 72.6557C51.7089 72.6303 51.8443 72.4526 51.8612 72.3256C51.8697 72.2494 51.675 72.0717 51.565 72.0717C51.455 72.0717 51.3365 72.2241 51.108 72.3849ZM51.5396 13.1754C51.4127 13.4208 51.2857 13.5563 51.2942 13.6832C51.3026 13.7848 51.5057 13.9625 51.5734 13.9371C51.7004 13.9033 51.8612 13.7509 51.8697 13.6324C51.8697 13.5224 51.7089 13.4039 51.5396 13.1754ZM65.3179 25.1933C65.1825 25.3795 65.0217 25.5149 65.0386 25.5996C65.0725 25.718 65.2333 25.8027 65.3433 25.9042C65.4364 25.7942 65.5887 25.6927 65.6057 25.5657C65.631 25.4895 65.4618 25.3711 65.3179 25.1933ZM65.3433 59.9691C65.1909 60.1723 65.0386 60.2908 65.0386 60.4093C65.0386 60.5024 65.2248 60.697 65.3094 60.6801C65.4364 60.6547 65.5887 60.5193 65.6311 60.4008C65.648 60.3162 65.4956 60.1807 65.3433 59.9691ZM23.746 29.1965C23.8899 29.0103 24.0507 28.8749 24.0338 28.7902C24.0084 28.6633 23.8476 28.5617 23.746 28.4517C23.6445 28.5617 23.4837 28.6633 23.4667 28.7902C23.4414 28.8833 23.6021 29.0103 23.746 29.1965ZM23.3144 57.244C23.5006 57.3878 23.6191 57.5571 23.7122 57.5402C23.8391 57.5148 23.9322 57.354 24.0422 57.2524C23.9322 57.1509 23.8307 56.9901 23.7122 56.9731C23.6191 56.9477 23.5006 57.1085 23.3144 57.244ZM44.752 14.7581C44.9551 14.8681 45.0905 15.0035 45.1921 14.9781C45.2937 14.9612 45.4545 14.775 45.4375 14.6903C45.4206 14.5803 45.2513 14.428 45.1498 14.428C45.0482 14.428 44.9382 14.5973 44.752 14.7581ZM12.5659 37.0758C12.7775 37.2113 12.896 37.3467 12.9976 37.3297C13.1076 37.3128 13.2007 37.152 13.2938 37.0589C13.1922 36.9658 13.0991 36.805 12.9891 36.7881C12.8876 36.7712 12.7691 36.9235 12.5659 37.0758ZM44.752 71.2677C44.9467 71.4285 45.0482 71.5893 45.1582 71.5809C45.2598 71.5809 45.4291 71.42 45.4375 71.3185C45.446 71.2338 45.2852 71.0561 45.1836 71.0392C45.0821 71.0138 44.9551 71.1492 44.752 71.2677ZM13.0061 49.3815C13.1415 49.17 13.2854 49.043 13.2684 48.9414C13.2515 48.8399 13.0822 48.696 12.9722 48.6875C12.8876 48.6791 12.7268 48.8653 12.7268 48.9668C12.7183 49.0768 12.8622 49.1869 13.0061 49.3815ZM36.7034 66.249C36.568 66.4267 36.4156 66.5452 36.4326 66.6213C36.4664 66.7398 36.6103 66.8329 36.7034 66.9345C36.7965 66.8329 36.9573 66.7398 36.9742 66.6298C36.9911 66.5367 36.8388 66.4182 36.7034 66.249ZM65.5887 50.4479C65.7749 50.6002 65.9019 50.7695 65.9865 50.7526C66.105 50.7272 66.2404 50.5664 66.2743 50.4394C66.2912 50.3717 66.105 50.194 65.995 50.1855C65.8934 50.1771 65.7749 50.321 65.5887 50.4479ZM36.2802 19.3621C36.4749 19.4975 36.5849 19.6329 36.7034 19.6414C36.7965 19.6498 36.9911 19.4806 36.9742 19.4298C36.9488 19.3113 36.8303 19.1421 36.7288 19.1167C36.6357 19.0913 36.5003 19.2352 36.2802 19.3621ZM65.5633 35.5524C65.7749 35.6963 65.8934 35.8317 65.995 35.8317C66.0965 35.8233 66.2658 35.6625 66.2658 35.5694C66.2658 35.4594 66.1135 35.2647 66.0288 35.2647C65.9103 35.2647 65.7834 35.4086 65.5633 35.5524ZM70.2605 29.5435C70.4128 29.3404 70.5736 29.2303 70.5652 29.1288C70.5567 29.0188 70.3874 28.9256 70.2943 28.8156C70.2012 28.9172 70.0404 29.0018 70.0235 29.1118C70.0066 29.2134 70.1335 29.3404 70.2605 29.5435ZM59.4443 45.7931C59.6559 45.92 59.7744 46.0554 59.8844 46.047C59.9775 46.0385 60.1637 45.8523 60.1468 45.8015C60.1045 45.6746 59.9775 45.5223 59.8675 45.5053C59.766 45.4884 59.6475 45.6492 59.4443 45.7931ZM30.9653 29.6281C31.1938 29.7551 31.3123 29.8736 31.4307 29.8651C31.5154 29.8566 31.6592 29.6789 31.6508 29.5858C31.6423 29.4927 31.49 29.3319 31.3969 29.3319C31.2868 29.3404 31.1768 29.4758 30.9653 29.6281ZM59.4528 40.2496C59.6475 40.385 59.7744 40.5289 59.876 40.512C59.986 40.495 60.0706 40.3258 60.1637 40.2242C60.0622 40.1311 59.9606 39.9788 59.8506 39.9618C59.7575 39.9534 59.639 40.1057 59.4528 40.2496ZM24.11 26.8522C24.3385 26.9706 24.4654 27.0891 24.5754 27.0722C24.6601 27.0637 24.8039 26.886 24.7955 26.8014C24.7785 26.6998 24.6262 26.539 24.5416 26.539C24.4231 26.5559 24.3215 26.6998 24.11 26.8522ZM70.269 56.4738C70.142 56.6769 70.0066 56.7954 70.0235 56.897C70.0404 57.007 70.1928 57.1001 70.2859 57.2016C70.3874 57.1001 70.5482 57.007 70.5652 56.897C70.5736 56.7954 70.4213 56.6769 70.269 56.4738ZM24.1607 59.199C24.3215 59.3259 24.44 59.4867 24.5162 59.4698C24.6347 59.4444 24.7193 59.2921 24.8124 59.199C24.7108 59.1059 24.6177 58.9705 24.5077 58.9535C24.4231 58.9282 24.3131 59.072 24.1607 59.199ZM39.3439 12.583C39.5132 12.7099 39.6402 12.8623 39.7079 12.8369C39.8179 12.7946 39.9279 12.6507 39.9533 12.5322C39.9618 12.4729 39.784 12.3121 39.6909 12.3121C39.5894 12.3121 39.4963 12.456 39.3439 12.583ZM16.2814 32.074C16.5014 32.2179 16.6284 32.3533 16.7215 32.3448C16.8315 32.3279 16.9161 32.1756 17.0177 32.0825C16.9246 31.9978 16.84 31.8455 16.7469 31.837C16.6284 31.8286 16.5099 31.9471 16.2814 32.074ZM16.2983 53.9348C16.5014 54.0618 16.6199 54.1972 16.7045 54.1802C16.823 54.1548 16.9076 54.011 17.0092 53.9179C16.9161 53.8332 16.823 53.6809 16.7215 53.6724C16.6199 53.6724 16.5014 53.7994 16.2983 53.9348ZM30.9653 56.4061C31.1768 56.5415 31.2868 56.6769 31.4053 56.6769C31.49 56.6769 31.6508 56.5161 31.6508 56.423C31.6508 56.3299 31.5069 56.1522 31.4223 56.1522C31.3038 56.1522 31.1853 56.2791 30.9653 56.4061ZM39.3439 73.4258C39.4963 73.5613 39.5894 73.6967 39.6825 73.6967C39.7756 73.6967 39.9618 73.5359 39.9533 73.4851C39.9279 73.3666 39.8179 73.2227 39.7079 73.1804C39.6402 73.155 39.5132 73.3074 39.3439 73.4258ZM36.0263 26.3867C35.874 26.6067 35.747 26.7167 35.7386 26.8267C35.7386 26.9114 35.8909 27.0722 35.9755 27.0722C36.0602 27.0807 36.2294 26.9368 36.2379 26.8522C36.2548 26.7506 36.1448 26.6236 36.0263 26.3867ZM35.6031 59.199C35.7893 59.3259 35.8994 59.4529 36.0094 59.4613C36.094 59.4613 36.2548 59.2752 36.2379 59.2074C36.2125 59.0974 36.0771 58.9705 35.9671 58.9451C35.8994 58.9197 35.7809 59.0636 35.6031 59.199ZM16.8738 26.4205C17.0346 26.539 17.1362 26.6744 17.2377 26.6744C17.3393 26.6744 17.4324 26.539 17.5339 26.4628C17.4408 26.3613 17.3647 26.209 17.2547 26.1836C17.1785 26.1582 17.0515 26.302 16.8738 26.4205ZM17.28 59.9522C17.3901 59.7914 17.5255 59.6814 17.517 59.5883C17.5085 59.4952 17.3393 59.3259 17.28 59.3429C17.17 59.3767 17.0262 59.4952 17.0008 59.6052C16.9838 59.6899 17.1446 59.7999 17.28 59.9522ZM47.7565 43.3641C47.8665 43.1864 47.985 43.0848 47.9765 42.9832C47.9765 42.9071 47.7988 42.7632 47.7396 42.7801C47.638 42.814 47.528 42.9409 47.5111 43.0425C47.5026 43.1102 47.6295 43.2118 47.7565 43.3641ZM44.405 42.0777C44.5912 42.1962 44.7097 42.3316 44.7943 42.3062C44.8959 42.2808 44.9974 42.1369 45.0228 42.0269C45.0313 41.9761 44.862 41.8238 44.7774 41.8238C44.6758 41.8322 44.5827 41.9507 44.405 42.0777ZM40.4442 44.9383C40.5457 44.7606 40.6642 44.6505 40.6558 44.549C40.6473 44.4643 40.478 44.3035 40.4188 44.3205C40.3088 44.3543 40.1733 44.4813 40.1649 44.5828C40.1564 44.6675 40.3088 44.769 40.4442 44.9383ZM44.3796 43.8296C44.4135 43.8973 44.4558 43.965 44.4896 44.0242C44.5827 44.0835 44.6928 44.202 44.7689 44.1766C44.8705 44.1427 44.9467 44.0158 45.0313 43.9227C44.9297 43.8465 44.8366 43.7196 44.7266 43.7026C44.6166 43.6942 44.4981 43.7873 44.3796 43.8296ZM41.6883 40.5204C41.8575 40.622 41.9676 40.7489 42.0438 40.7235C42.1453 40.6982 42.2215 40.5627 42.3061 40.4781C42.2215 40.4019 42.1284 40.2581 42.0522 40.2581C41.9506 40.2665 41.8575 40.3935 41.6883 40.5204ZM40.4357 41.1044C40.3088 41.2567 40.1649 41.3583 40.1818 41.4345C40.1987 41.536 40.3426 41.6207 40.4272 41.7137C40.5119 41.6207 40.6388 41.536 40.6727 41.426C40.6811 41.3668 40.5457 41.2567 40.4357 41.1044ZM41.6883 45.4969C41.8491 45.6238 41.9507 45.7508 42.0438 45.7592C42.1284 45.7592 42.213 45.6153 42.2977 45.5392C42.213 45.4545 42.1368 45.3191 42.0353 45.2937C41.976 45.2684 41.866 45.3868 41.6883 45.4969ZM73.1126 46.3686C73.2904 46.4701 73.3919 46.5717 73.485 46.5632C73.5781 46.5463 73.7135 46.4194 73.7135 46.3517C73.7135 46.267 73.5781 46.1062 73.5019 46.1147C73.3919 46.1147 73.2904 46.2332 73.1126 46.3686ZM39.7333 47.2149C39.6317 47.3842 39.5132 47.4857 39.5301 47.5619C39.5471 47.6635 39.674 47.7396 39.7587 47.8243C39.8433 47.7481 39.9956 47.6635 39.9956 47.5873C39.9871 47.4942 39.8602 47.3926 39.7333 47.2149ZM39.7333 38.083C39.6317 38.2438 39.5217 38.3454 39.5301 38.4215C39.5386 38.5146 39.6656 38.5992 39.7333 38.6839C39.8179 38.5908 39.9533 38.5146 39.9872 38.413C40.0041 38.3453 39.8602 38.2353 39.7333 38.083ZM73.4681 39.344C73.3581 39.4964 73.2311 39.5895 73.2396 39.6656C73.248 39.7587 73.375 39.8349 73.4512 39.9195C73.5358 39.8349 73.6628 39.7587 73.6966 39.6572C73.722 39.5979 73.5866 39.4879 73.4681 39.344ZM23.873 18.7866C24.0507 18.8881 24.1607 18.9897 24.2453 18.9728C24.33 18.9559 24.3892 18.8205 24.4569 18.7358C24.3808 18.6766 24.2961 18.5581 24.22 18.5666C24.1269 18.5666 24.0422 18.6681 23.873 18.7866ZM52.1997 13.4462C52.0982 13.5986 51.9882 13.7086 51.9966 13.7848C52.0135 13.8694 52.1574 13.9879 52.2336 13.9794C52.3182 13.971 52.4452 13.8355 52.4536 13.7509C52.4536 13.6747 52.3267 13.5901 52.1997 13.4462ZM23.873 67.2476C24.0422 67.3576 24.1354 67.4592 24.2369 67.4592C24.3131 67.4592 24.3892 67.3407 24.4654 67.273C24.3892 67.1884 24.3215 67.0614 24.2369 67.0445C24.1523 67.0276 24.0507 67.1376 23.873 67.2476ZM51.8612 72.2241C52.0305 72.351 52.1236 72.4695 52.2082 72.461C52.3013 72.4526 52.3859 72.3341 52.4706 72.2579C52.3944 72.1733 52.3267 72.0463 52.2336 72.0294C52.1574 72.0209 52.0474 72.1225 51.8612 72.2241ZM71.7246 52.7923C71.8939 52.8938 71.9955 53.0038 72.0801 52.9869C72.1647 52.97 72.2325 52.843 72.3002 52.7669C72.2155 52.6992 72.1393 52.5722 72.0547 52.5722C71.9701 52.5637 71.877 52.6822 71.7246 52.7923Z" fill="white"/>
</svg>
